<svg width="24" height="24" viewBox="0 0 24 24" fill="none" xmlns="http://www.w3.org/2000/svg">
<path d="M13 7C13.5202 6.8622 14.0274 6.67952 14.516 6.454C15.427 6.016 16.01 5.439 16.453 4.522C16.66 4.094 16.835 3.594 17 3C17.165 3.595 17.34 4.095 17.547 4.521C17.99 5.439 18.573 6.016 19.484 6.454C19.91 6.659 20.409 6.834 21 7C20.4798 7.13812 19.9726 7.32114 19.484 7.547C18.573 7.985 17.99 8.562 17.547 9.479C17.3194 9.96857 17.1363 10.4776 17 11C16.835 10.406 16.66 9.905 16.453 9.479C16.01 8.561 15.427 7.985 14.516 7.547C14.028 7.3197 13.5207 7.13663 13 7Z" stroke="#F6F4E5" stroke-linecap="round" stroke-linejoin="round"/>
<path d="M3 14C3.55776 13.8455 4.1089 13.668 4.652 13.468C7.194 12.515 8.505 11.23 9.468 8.662C9.66943 8.116 9.84693 7.56148 10 7C10.1531 7.56148 10.3306 8.116 10.532 8.662C11.495 11.229 12.807 12.515 15.348 13.468C15.848 13.6547 16.3987 13.832 17 14C16.4422 14.1545 15.8911 14.332 15.348 14.532C12.806 15.485 11.494 16.77 10.532 19.338C10.3306 19.884 10.1531 20.4385 10 21C9.84693 20.4385 9.66943 19.884 9.468 19.338C8.505 16.77 7.193 15.485 4.652 14.532C4.1089 14.332 3.55776 14.1545 3 14Z" stroke="#F6F4E5" stroke-linecap="round" stroke-linejoin="round"/>
</svg>
