<svg width="24" height="24" viewBox="0 0 24 24" fill="none" xmlns="http://www.w3.org/2000/svg">
<path d="M7 19H6C5.46957 19 4.96086 18.7893 4.58579 18.4142C4.21071 18.0391 4 17.5304 4 17V16" stroke="#F6F4E5" stroke-linecap="round" stroke-linejoin="round"/>
<path d="M4 13V10" stroke="#F6F4E5" stroke-linecap="round" stroke-linejoin="round"/>
<path d="M4 11V10" stroke="#F6F4E5" stroke-linecap="round" stroke-linejoin="round"/>
<path d="M4 7V6C4 5.46957 4.21071 4.96086 4.58579 4.58579C4.96086 4.21071 5.46957 4 6 4H7" stroke="#F6F4E5" stroke-linecap="round" stroke-linejoin="round"/>
<path d="M10 4H13" stroke="#F6F4E5" stroke-linecap="round" stroke-linejoin="round"/>
<path d="M16 4H17C17.5304 4 18.0391 4.21071 18.4142 4.58579C18.7893 4.96086 19 5.46957 19 6V7" stroke="#F6F4E5" stroke-linecap="round" stroke-linejoin="round"/>
<path d="M11.6844 18.326C11.721 18.4903 11.8069 18.6394 11.9307 18.7535C12.0544 18.8676 12.2101 18.941 12.3768 18.9641C12.5436 18.9871 12.7133 18.9586 12.8634 18.8824C13.0135 18.8062 13.1366 18.686 13.2164 18.5378L14.6535 16.411L18.0276 19.7851C18.0957 19.8532 18.1766 19.9073 18.2656 19.9441C18.3546 19.981 18.45 20 18.5464 20C18.6427 20 18.7381 19.981 18.8272 19.9441C18.9162 19.9073 18.997 19.8532 19.0652 19.7851L19.7851 19.0652C19.8532 18.997 19.9073 18.9162 19.9441 18.8272C19.981 18.7381 20 18.6427 20 18.5464C20 18.45 19.981 18.3546 19.9441 18.2656C19.9073 18.1766 19.8532 18.0957 19.7851 18.0276L16.411 14.6535L18.5515 13.2164C18.6997 13.1366 18.82 13.0134 18.8961 12.8632C18.9723 12.7131 19.0007 12.5433 18.9776 12.3766C18.9545 12.2099 18.8809 12.0542 18.7668 11.9305C18.6526 11.8067 18.5034 11.7209 18.3391 11.6844L9 9L11.6844 18.326Z" stroke="#F6F4E5" stroke-linecap="round" stroke-linejoin="round"/>
</svg>
