<svg width="24" height="24" viewBox="0 0 24 24" fill="none" xmlns="http://www.w3.org/2000/svg">
<path d="M3 21.0011H21" stroke="#F6F4E5" stroke-linecap="round" stroke-linejoin="round"/>
<path d="M5 16.5V18.0011H18C18.2652 18.0011 18.5196 17.8957 18.7071 17.7082C18.8946 17.5207 19 17.2663 19 17.0011V9.0011C19 8.73588 18.8946 8.48153 18.7071 8.29399C18.5196 8.10646 18.2652 8.0011 18 8.0011H15M5 10.5007V9.0011C5 8.73588 5.10536 8.48153 5.29289 8.29399C5.48043 8.10646 5.73478 8.0011 6 8.0011H8" stroke="#F6F4E5" stroke-linecap="round" stroke-linejoin="round"/>
<path d="M16.5479 2.50391C16.5543 2.50453 16.5609 2.504 16.5674 2.50488C16.5782 2.50636 16.589 2.50958 16.5996 2.51172C16.6158 2.51502 16.6318 2.51859 16.6475 2.52344C16.6636 2.52839 16.679 2.53456 16.6943 2.54102C16.7088 2.54712 16.7226 2.55412 16.7363 2.56152C16.7513 2.56955 16.7654 2.57847 16.7793 2.58789C16.7917 2.59628 16.8038 2.6048 16.8154 2.61426C16.8282 2.62467 16.84 2.63589 16.8516 2.64746C16.8635 2.65934 16.875 2.6715 16.8857 2.68457C16.8942 2.69489 16.9016 2.70584 16.9092 2.7168C16.9204 2.73289 16.9311 2.74913 16.9404 2.7666C16.9463 2.77769 16.951 2.78925 16.9561 2.80078C16.9636 2.818 16.9709 2.83525 16.9766 2.85352C16.9807 2.86695 16.9833 2.88069 16.9863 2.89453C16.9891 2.90723 16.9943 2.91953 16.9961 2.93262C16.997 2.93901 16.9955 2.94579 16.9961 2.95215C16.9975 2.96638 16.9969 2.98062 16.9971 2.99512C16.9973 3.0153 16.9973 3.035 16.9951 3.05469C16.9947 3.05886 16.9957 3.0632 16.9951 3.06738C16.6901 5.29727 15.7884 7.40392 14.3857 9.16406C13.077 10.8063 11.3773 12.0899 9.44531 12.9004C9.55906 13.5536 9.48755 14.2262 9.2334 14.8398C8.96848 15.4792 8.51975 16.0256 7.94434 16.4102C7.36878 16.7947 6.6922 17 6 17H3C2.72386 17 2.5 16.7761 2.5 16.5V13.5C2.50006 12.8079 2.70535 12.1311 3.08984 11.5557C3.47443 10.9802 4.02163 10.5315 4.66113 10.2666C5.27455 10.0126 5.94666 9.94013 6.59961 10.0537C7.4101 8.12191 8.69482 6.42183 10.3369 5.11328C12.0968 3.71103 14.2031 2.80989 16.4326 2.50488C16.4391 2.504 16.4457 2.50453 16.4521 2.50391C16.457 2.50344 16.4619 2.50228 16.4668 2.50195H16.5332C16.5381 2.50228 16.543 2.50344 16.5479 2.50391ZM6.48828 11.0479C6.00335 10.9514 5.49976 11.0012 5.04297 11.1904C4.58635 11.3796 4.19553 11.7004 3.9209 12.1113C3.64639 12.5223 3.50006 13.0058 3.5 13.5V16H6C6.49431 16 6.97762 15.8536 7.38867 15.5791C7.79967 15.3045 8.12035 14.9137 8.30957 14.457C8.49868 14.0004 8.54851 13.4975 8.45215 13.0127C8.43975 12.9504 8.42424 12.889 8.40723 12.8281C8.39873 12.8115 8.38859 12.7952 8.38184 12.7773C8.36766 12.7397 8.35931 12.7013 8.35449 12.6631C8.23048 12.3147 8.03114 11.996 7.76758 11.7324C7.50476 11.4697 7.1879 11.2696 6.84082 11.1455C6.8016 11.1408 6.76224 11.1327 6.72363 11.1182C6.70407 11.1108 6.68602 11.1003 6.66797 11.0908C6.60877 11.0744 6.54883 11.0599 6.48828 11.0479ZM15.8896 3.60938C14.0907 3.96614 12.3995 4.74849 10.96 5.89551C9.47021 7.08266 8.30091 8.62047 7.55371 10.3672C7.89227 10.5351 8.20449 10.7553 8.47461 11.0254C8.74469 11.2955 8.96485 11.6078 9.13281 11.9463C10.8796 11.1991 12.4173 10.0308 13.6045 8.54102C14.7519 7.10107 15.533 5.40899 15.8896 3.60938Z" fill="#F6F4E5"/>
</svg>
