<svg width="24" height="24" viewBox="0 0 24 24" fill="none" xmlns="http://www.w3.org/2000/svg">
<g clip-path="url(#clip0_156_1059)">
<path d="M6 18.5L3 20V7L9 4L15 7L21 4V17L16 19.5" stroke="#F6F4E5" stroke-linecap="round" stroke-linejoin="round"/>
<path d="M9 4V12" stroke="#F6F4E5" stroke-linecap="round" stroke-linejoin="round"/>
<path d="M15 7V13" stroke="#F6F4E5" stroke-linecap="round" stroke-linejoin="round"/>
<path d="M11 12C15 12 16 13 16 17C16 21 15 22 11 22C7 22 6 21 6 17C6 13 7 12 11 12Z" stroke="#F6F4E5" stroke-linecap="round" stroke-linejoin="round"/>
<path d="M6 18.7354L8.52 16.3544C9.03968 15.8819 9.68032 15.8819 10.2 16.3544L13 19" stroke="#F6F4E5" stroke-linecap="round" stroke-linejoin="round"/>
<path d="M12 18.0536L12.6154 17.4226C13.1865 16.8591 13.8905 16.8591 14.4615 17.4226L16 19" stroke="#F6F4E5" stroke-linecap="round" stroke-linejoin="round"/>
<circle cx="13" cy="15" r="0.5" stroke="#F6F4E5"/>
</g>
<defs>
<clipPath id="clip0_156_1059">
<rect width="24" height="24" fill="white"/>
</clipPath>
</defs>
</svg>
