<svg width="24" height="24" viewBox="0 0 24 24" fill="none" xmlns="http://www.w3.org/2000/svg">
<g clip-path="url(#clip0_156_1059)">
<path d="M6 18.5L3 20V7L9 4L15 7L21 4V17L19 18" stroke="#F6F4E5" stroke-linecap="round" stroke-linejoin="round"/>
<path d="M9 4C9 4 9 7.4375 9 9" stroke="#F6F4E5" stroke-linecap="round" stroke-linejoin="round"/>
<path d="M15 7V9" stroke="#F6F4E5" stroke-linecap="round" stroke-linejoin="round"/>
<path d="M12.5 9C17.7 9 19 10.3 19 15.5C19 20.7 17.7 22 12.5 22C7.3 22 6 20.7 6 15.5C6 10.3 7.3 9 12.5 9Z" stroke="#F6F4E5" stroke-linecap="round" stroke-linejoin="round"/>
<path d="M6.5 18.5L9.276 14.6607C9.95158 14.0464 10.7844 14.0464 11.46 14.6607L15.1 18.1" stroke="#F6F4E5" stroke-linecap="round" stroke-linejoin="round"/>
<path d="M13.8 16.8696L14.6 16.0494C15.3424 15.3169 16.2576 15.3169 17 16.0494L18.5 17.5493" stroke="#F6F4E5" stroke-linecap="round" stroke-linejoin="round"/>
<circle cx="15.1" cy="12.9" r="0.8" stroke="#F6F4E5"/>
</g>
<defs>
<clipPath id="clip0_156_1059">
<rect width="24" height="24" fill="white"/>
</clipPath>
</defs>
</svg>
